# xmcd
#
# Track frame offsets: 
#        150
#        1432
#        19588
#        32411
#        42389
#        56066
#        73756
#        90514
#        116293
#        133539
#
# Disc length: 1808 seconds
#
# Revision: 0
# Processed by: cddbd v1.5PL3 Copyright (c) Steve Scherf et al.
# Submitted via: ExactAudioCopy v0.95a3
#
DISCID=78070e0a
DTITLE=Various Artist - speed drunker
DYEAR=2003
DGENRE=GABBA
TTITLE0=intro
TTITLE1=m1dy - 37Dicks master
TTITLE2=fRX - Naton Of Weapon
TTITLE3=C-TYPE - Chophandknife
TTITLE4=Retrigger - Touos Morreremos Em 1997
TTITLE5=DJ Takuma - Left pop eye, right pu
TTITLE6=Disruptor and Buzzmastr - Fireworx
TTITLE7=Jabberwocr - Believe (Hard Mix)
TTITLE8=Killing Scum - Noirist
TTITLE9=ppp /DAITOURYOU, ANTA "P" DAYO
EXTD=
EXTT0=
EXTT1=
EXTT2=
EXTT3=
EXTT4=
EXTT5=
EXTT6=
EXTT7=
EXTT8=
EXTT9=
PLAYORDER=
